inDegrees=no
num_controls=7
num_derivatives=13
num_iterations=32
num_multipliers=7
num_parameters=0
num_slacks=7
num_states=26
objective=0.467452
objective_accelerations=0.063543
objective_balance=0.000689
objective_effort=0.017478
objective_height=0.376832
objective_ligament=0.008910
solver_duration=436.031333
status=Solve_Succeeded
success=true
DataType=double
version=3
OpenSimVersion=4.5
endheader
time	/jointset/ground_pelvis/pelvis_tilt/value	/jointset/ground_pelvis/pelvis_tx/value	/jointset/ground_pelvis/pelvis_ty/value	/jointset/hip_l/hip_flexion_l/value	/jointset/hip_l/hip_adduction_l/value	/jointset/hip_l/hip_rotation_l/value	/jointset/back/lumbar_extension/value	/jointset/patellofemoral_l/patellar_flexion_l/value	/jointset/knee_l/knee_flexion_l/value	/jointset/knee_l/knee_adduction_l/value	/jointset/knee_l/knee_rotation_l/value	/jointset/ankle_l/ankle_angle_l/value	/jointset/subtalar_l/subtalar_angle_l/value	/jointset/ground_pelvis/pelvis_tilt/speed	/jointset/ground_pelvis/pelvis_tx/speed	/jointset/ground_pelvis/pelvis_ty/speed	/jointset/hip_l/hip_flexion_l/speed	/jointset/hip_l/hip_adduction_l/speed	/jointset/hip_l/hip_rotation_l/speed	/jointset/back/lumbar_extension/speed	/jointset/patellofemoral_l/patellar_flexion_l/speed	/jointset/knee_l/knee_flexion_l/speed	/jointset/knee_l/knee_adduction_l/speed	/jointset/knee_l/knee_rotation_l/speed	/jointset/ankle_l/ankle_angle_l/speed	/jointset/subtalar_l/subtalar_angle_l/speed	/forceset/tau_hip_flexion_l	/forceset/tau_hip_adduction_l	/forceset/tau_hip_rotation_l	/forceset/tau_knee_flexion_l	/forceset/tau_ankle_angle_l	/forceset/tau_subtalar_angle_l	/forceset/tau_lumbar_extension	lambda_cid13_p0	lambda_cid13_p1	lambda_cid13_p2	lambda_cid13_p3	lambda_cid13_p4	lambda_cid13_p5	lambda_cid14_p0	/jointset/ground_pelvis/pelvis_tilt/accel	/jointset/ground_pelvis/pelvis_tx/accel	/jointset/ground_pelvis/pelvis_ty/accel	/jointset/hip_l/hip_flexion_l/accel	/jointset/hip_l/hip_adduction_l/accel	/jointset/hip_l/hip_rotation_l/accel	/jointset/back/lumbar_extension/accel	/jointset/patellofemoral_l/patellar_flexion_l/accel	/jointset/knee_l/knee_flexion_l/accel	/jointset/knee_l/knee_adduction_l/accel	/jointset/knee_l/knee_rotation_l/accel	/jointset/ankle_l/ankle_angle_l/accel	/jointset/subtalar_l/subtalar_angle_l/accel	gamma_cid13_p0	gamma_cid13_p1	gamma_cid13_p2	gamma_cid13_p3	gamma_cid13_p4	gamma_cid13_p5	gamma_cid14_p0
0	0.05902123663828304	0.1025142941486714	0.9057535233884321	0.1266922784136757	-0.3444611819219784	-0.2300068140071844	-0.2144969558742783	0.2051545070141783	0.2051545070141877	-0.1224713652073603	-0.1528422414537132	0.09024313228550125	0.1069276870562569	0	0	0	0	0	0	0	0	0	0	0	0	0	0.114388506407407	-0.01361687511504921	-0.005959082290459519	-0.240501860206162	0.1864817457349039	-0.09541793802874012	-0.04792032152351137	27.8048918508077	39.37737187998798	-9.763734806289659	-15.86437040587801	-437.2233721580535	-26.59403550634725	-25.61497138519582	-3.408908171188627	-1.168043337036692	-0.9252497254087995	11.86369857077018	-0.3193231421568285	3.005797280366763	-3.533499678217988	11.16922596686236	11.16922596686354	2.192663087616067	-0.982970398977483	3.615199119396074	0.784572694866244	1.571315916640937e-08	7.481075648251507e-07	-4.447026793040458e-07	5.179880985979719e-08	2.102366958613259e-07	6.314605001449569e-07	1.066340113175727e-07
0.01	0.05885526210083269	0.1024567939218099	0.9057084747268581	0.1272699634910286	-0.3444772330157454	-0.2298534013272799	-0.214679167335856	0.2056965156132405	0.2056965156130725	-0.1223666124014414	-0.1528830194514566	0.09041758993227582	0.1069647427865774	-0.03344095724933845	-0.01143809855654747	-0.008998655340745494	0.1151893314303513	-0.003335805657889909	0.03051377037126935	-0.03627283521739843	0.1075292976352718	0.1075292976352845	0.02045598977135751	-0.008090078913123968	0.03447494344365401	0.007142038407544075	0.1168598168441771	-0.02279265668708998	-0.006293829735937557	-0.2458430312904498	0.1909898797641875	-0.08880325652913706	-0.04940850611229729	29.61588071627567	36.35923641532759	-9.478696999503356	-17.28399598634073	-438.5163253417043	-33.58114665967488	-25.61569298751733	-3.34860166114537	-1.122390734540613	-0.8854698449247379	11.29439501382321	-0.3595805139833202	3.048943654876655	-3.648756878255784	10.41389700847326	10.41389700847399	1.897953722348359	-0.7122884081003319	3.301171295176351	0.6385888918691025	-1.641150363974205e-08	6.011500256940243e-07	-2.095524904465512e-07	6.422697574838491e-08	-5.394395240733667e-08	3.364815837862906e-07	7.846152587878851e-08
0.02	0.05834749555897715	0.1022867731854654	0.905573780230576	0.1289891107997513	-0.3445304164134346	-0.2293998955958665	-0.2152190234365398	0.2072876402579806	0.2072876402580016	-0.1220721223381079	-0.1530027505924913	0.09092430288111281	0.1070651327966073	-0.0683584008723086	-0.02250410189659177	-0.0179291669416456	0.2282924462468565	-0.00742646077098794	0.06001861031736247	-0.07152892782493163	0.2098232091351132	0.2098232091351303	0.03794745156085084	-0.015790628651061	0.06645106042035102	0.01266685594190558	0.1193311272836753	-0.03196843825890657	-0.006628577181034752	-0.2511842023730273	0.1954980137941611	-0.0821885750290702	-0.05089669069953665	31.47662802640717	33.34610360640247	-9.210123688553713	-18.75013309303955	-438.9094313997257	-40.36467816786465	-25.61768145553127	-3.704205445914475	-1.093624293736668	-0.9116209774397038	11.44645524800118	-0.4702930331984398	2.804011195331553	-3.330151156244658	10.12214873977631	10.12214873977583	1.599757491243271	-0.9050645639401727	3.115433826003925	0.4611285202294759	-4.853616644589347e-08	4.54192486562898e-07	2.559769841094352e-08	7.665514163697263e-08	-3.181246006759993e-07	4.150266742762435e-08	5.028904044000435e-08
0.03	0.0574901916998744	0.1020078701097304	0.9053502158226666	0.1318247783512868	-0.3446260205122619	-0.228656422894101	-0.2161069125810315	0.2098808365304365	0.2098808365304706	-0.1216116883345078	-0.1531979002316907	0.09174209104077638	0.107216405823548	-0.1025831012084133	-0.0332206444489843	-0.02675245667053062	0.3379789637765283	-0.01158870554936713	0.0886670267033515	-0.1060028449801974	0.3083998894944697	0.3083998894944793	0.05421004465600417	-0.02302594590680947	0.09705246712568892	0.01768841373853304	0.1139455234884388	-0.02690352384161396	-0.005843564930266336	-0.244354421963308	0.1871654481661797	-0.08318116586546401	-0.04690734983545392	28.77001477620359	33.96914119427606	-8.987394842438738	-17.1851179244089	-438.465003554333	-38.00737504862452	-25.62058226755381	-3.203709013134563	-1.052273536066416	-0.8630589674171175	10.60043229831915	-0.3734144999870267	2.893933050951728	-3.49910358021121	9.66299436181778	9.662994361817223	1.65019601734282	-0.6007690271416207	3.024388341533497	0.5376955329350736	-6.167683077388016e-08	7.364205831891207e-07	-8.46506173496485e-08	1.138449870722364e-07	-4.710598824713785e-07	2.04658656471151e-07	9.255798662234462e-08
0.04	0.05630621950024103	0.1016234807484555	0.9050393433181068	0.1357314475366088	-0.3447600919188133	-0.227626730790292	-0.2173381592140998	0.2134473129419759	0.2134473129419911	-0.1209864912400531	-0.1534590037877276	0.09286427211726012	0.1074208996531658	-0.1336920689714102	-0.04360135900455807	-0.03539078627169524	0.4424927730210527	-0.01511992232089878	0.1172624907181124	-0.1402004255371481	0.4044792369659087	0.4044792369659108	0.07090006969880455	-0.02898141199251015	0.1273296437803925	0.02331101647737319	0.1085599196922229	-0.02183860942443454	-0.005058552678796119	-0.2375246415543051	0.1788328825379298	-0.08417375670207615	-0.04291800897192075	26.10770881506784	34.59936383493223	-8.782879851264543	-15.65931478281216	-437.2148621681952	-35.45932732893601	-25.62325388154842	-3.081058931292449	-1.026458694373461	-0.8746289518956073	10.41191359097193	-0.3440874318289371	2.793420721085992	-3.274883836581402	9.622682162192774	9.622682162192321	1.685243880772732	-0.6490943299306674	3.050587815876382	0.5813375086717877	-7.442607245283255e-08	1.027497868181475e-06	-2.0202055176216e-07	1.515453826012461e-07	-6.217014453704013e-07	3.772607260384343e-07	1.362793334566668e-07
0.05	0.05481860616269637	0.101136717436971	0.9046421408269678	0.1406666050605336	-0.3449276697881138	-0.2263142746898739	-0.2189036939497931	0.2179626410009876	0.2179626410009364	-0.1201948884312209	-0.153776928023308	0.09428612313096056	0.1076827237493595	-0.1640719516573162	-0.05371807952177	-0.04409716369371443	0.5445031262726098	-0.01842021284177472	0.1449923988882406	-0.1722828333376015	0.4981562324668559	0.4981562324668981	0.08722051999373834	-0.03467256321231128	0.1568175207754923	0.02896130746632924	0.1052888815906178	-0.02018415313856547	-0.004535120791969229	-0.2345597644805675	0.1740398289858514	-0.08315671229764612	-0.04038347500476799	24.6588501114949	34.29114974189953	-8.596448685071902	-14.745617621441	-436.7132801723946	-35.30769902882313	-25.62443266207044	-3.05264849156727	-0.9992645524447206	-0.8758854555504928	10.09025198488099	-0.3267948278847679	2.727393208445703	-3.081366011672904	9.175659279242685	9.175659279248922	1.575601025872203	-0.5395529835987325	2.864455392254168	0.5428638031137476	-6.972923243397027e-08	8.8367141848046e-07	-2.137731868670634e-07	1.435347313284561e-07	-6.180225174126405e-07	3.409274054494122e-07	1.25462793636403e-07
0.06	0.05301995488738846	0.1005497897559031	0.9041564258979696	0.1466207972755637	-0.3451290095557817	-0.2247315960390887	-0.2207713421154603	0.223401829222059	0.2234018292220792	-0.1192460500351718	-0.1541538492642049	0.09599616646478758	0.1079982485372637	-0.1958996565162866	-0.06363423292122863	-0.05309327384352898	0.6462997112295057	-0.02187230198938479	0.1713070007971729	-0.2006231115338187	0.5892512693756831	0.5892512693757681	0.1023471871694244	-0.04078081305585477	0.1849681078076711	0.03405115481952804	0.1020178434903756	-0.01852969685264772	-0.004011688904976381	-0.2315948874060954	0.1692467754340364	-0.08213966789307918	-0.03784894103673973	23.25077248080291	33.98881295618428	-8.425824443264696	-13.86581199907932	-435.4708890783367	-34.97972577461131	-25.62302780643241	-3.370623365904897	-0.9863452708232842	-0.9325754974546646	10.3691599320399	-0.3744471571757381	2.510359468846898	-2.526457915733872	9.106290443768737	9.106290443768868	1.446487256923232	-0.7325140546791613	2.783129823291591	0.4692487815201344	-6.429782055414738e-08	7.215332325818298e-07	-2.210787777905938e-07	1.335994044008533e-07	-6.078458845766991e-07	2.957968052748615e-07	1.123499217464723e-07
